PathFileType	4	(X/Y/Z)	C:/Users/opensim2020/Desktop/walking_exp_matlab/subject06_walking16_straight_02.trc	
DataRate	CameraRate	NumFrames	NumMarkers	Units	OrigDataRate	OrigDataStartFrame	OrigNumFrames	
100.00	100.00	5	51	mm	100.00	1954	283	
Frame#	Time	LFHD			RFHD			LBHD			RBHD			C7			T10			CLAV			STRN			RBAK			LSHO			LUPA			LELB			LFRM			LWRA			LWRB			LFIN			RSHO			RUPA			RELB			RFRM			RWRA			RWRB			RFIN			LASI			RASI			LPSI			RPSI			LTHI			LKNE			LTIB			LANK			LHEE			LTOE			RTHI			RKNE			RTIB			RANK			RHEE			RTOE			*39			*40			*41			*42			*43			*44			*45			*46			*47			*48			*49			*50			
		X1	Y1	Z1	X2	Y2	Z2	X3	Y3	Z3	X4	Y4	Z4	X5	Y5	Z5	X6	Y6	Z6	X7	Y7	Z7	X8	Y8	Z8	X9	Y9	Z9	X10	Y10	Z10	X11	Y11	Z11	X12	Y12	Z12	X13	Y13	Z13	X14	Y14	Z14	X15	Y15	Z15	X16	Y16	Z16	X17	Y17	Z17	X18	Y18	Z18	X19	Y19	Z19	X20	Y20	Z20	X21	Y21	Z21	X22	Y22	Z22	X23	Y23	Z23	X24	Y24	Z24	X25	Y25	Z25	X26	Y26	Z26	X27	Y27	Z27	X28	Y28	Z28	X29	Y29	Z29	X30	Y30	Z30	X31	Y31	Z31	X32	Y32	Z32	X33	Y33	Z33	X34	Y34	Z34	X35	Y35	Z35	X36	Y36	Z36	X37	Y37	Z37	X38	Y38	Z38	X39	Y39	Z39	X40	Y40	Z40	X41	Y41	Z41	X42	Y42	Z42	X43	Y43	Z43	X44	Y44	Z44	X45	Y45	Z45	X46	Y46	Z46	X47	Y47	Z47	X48	Y48	Z48	X49	Y49	Z49	X50	Y50	Z50	X51	Y51	Z51	

1	0.000	1499.23145	1321.51685	1679.66736	1367.97327	1321.02271	1665.19763	1500.57446	1452.63354	1620.17078	1372.20471	1451.02441	1611.40015	1438.14148	1448.20886	1464.96570	1421.20044	1486.91248	1138.69629	1448.83008	1339.80212	1386.64709	1458.55811	1305.93140	1209.03821	1347.01294	1513.28101	1297.68701	1603.99524	1413.12952	1418.39868	1675.22144	1439.86975	1217.80920	1686.12354	1454.94519	1106.86096	1709.31360	1441.26587	957.33496	1668.05627	1389.04492	838.84033	1706.45667	1451.99365	838.89307	1707.14319	1412.07434	754.42560	1284.13525	1363.30261	1420.11646	1191.60229	1384.82532	1220.07495	1181.93640	1370.04700	1098.39978	1170.00562	1344.35852	980.27966	1214.70703	1282.43420	846.64075	1164.82776	1328.40613	843.36072	1172.37793	1285.50208	770.70593	1552.82068	1326.84082	976.33087	1333.39783	1302.43188	973.51849	1509.85095	1483.23792	1006.37537	1342.32202	1456.01917	1006.98810	1613.16455	1338.13916	670.24396	1589.29431	1291.38354	514.32855	1588.15881	1391.73303	284.34036	1555.54480	1439.83386	117.15604	1504.45520	1475.58789	107.55829	1578.32556	1310.59961	55.59161	1289.47632	1380.81665	638.58984	1317.30005	1391.87378	514.36914	1333.30396	1461.10828	256.18317	1390.08228	1485.34167	73.64516	1437.02893	1524.54236	50.72085	1391.19409	1331.57800	37.62749	1438.71851	1423.14197	1712.62793																																	 
2	0.010	1499.20374	1315.36829	1679.04163	1367.97131	1314.91077	1664.62488	1500.66406	1446.48816	1619.64954	1372.28809	1444.98010	1610.90417	1438.14429	1442.13428	1464.41650	1421.13293	1481.02441	1138.15979	1448.81445	1333.81970	1386.07031	1458.32788	1299.94446	1208.53235	1346.83838	1507.35291	1297.27832	1603.96118	1407.18835	1417.82605	1675.23474	1434.97766	1217.45935	1686.13708	1450.79846	1106.62537	1709.28638	1438.12231	956.92120	1668.06055	1386.77063	838.13892	1704.79480	1447.67139	837.18976	1706.76660	1410.35571	753.52936	1284.09314	1357.24097	1419.70020	1191.28174	1378.85486	1219.80444	1181.51697	1363.98792	1098.07751	1169.81104	1337.61328	980.19879	1215.15649	1274.77942	847.11499	1165.06482	1320.42334	843.46271	1172.99805	1277.03528	771.27631	1552.44580	1320.43884	976.10455	1333.80920	1297.49329	972.85651	1509.94226	1476.81970	1005.77869	1342.28735	1450.17761	1006.27466	1612.67969	1330.70947	670.08563	1588.62085	1282.92944	514.40735	1588.21790	1374.14539	280.27600	1556.11340	1415.73218	111.26093	1505.23999	1451.27332	100.04285	1576.85120	1283.77197	54.89366	1289.66858	1376.26477	638.01648	1317.42163	1388.30090	513.83032	1333.62805	1459.26807	256.14078	1390.39343	1484.77466	73.75589	1437.22351	1524.45728	50.93133	1391.49963	1331.43591	37.40026	1438.84631	1417.02234	1712.08350																																	 
3	0.020	1499.35522	1309.16980	1678.38037	1368.06409	1308.87830	1664.02063	1500.81763	1440.33752	1619.04468	1372.42297	1438.88696	1610.33374	1438.16565	1436.10620	1463.80688	1421.01428	1475.01672	1137.46838	1448.77881	1327.86194	1385.45947	1458.10461	1293.93359	1207.93164	1346.73547	1501.42163	1296.79175	1603.93555	1401.23474	1417.15552	1675.26880	1430.00684	1216.99561	1686.10498	1446.49976	1106.25159	1709.24316	1434.93079	956.52863	1667.88281	1384.42468	837.42914	1704.36096	1445.00403	836.49640	1706.74805	1408.71887	753.09222	1284.09729	1351.25366	1419.20447	1191.05212	1372.81458	1219.44873	1181.06580	1358.04175	1097.75488	1169.71033	1330.77893	980.01959	1215.59094	1266.99365	847.81610	1165.30920	1312.50891	843.46771	1173.51025	1268.37500	771.55548	1552.13037	1313.96191	975.63849	1332.61670	1290.82837	972.40979	1509.99243	1470.44836	1005.11188	1342.34705	1444.40503	1005.56445	1612.37646	1323.51099	669.61450	1587.87805	1274.80884	514.32532	1588.44617	1356.58667	276.46399	1556.55017	1391.40283	105.89957	1506.23474	1427.35303	93.54640	1574.89282	1256.91113	54.47289	1289.87805	1371.60925	637.45032	1317.45715	1384.56812	513.27417	1334.03613	1457.20679	255.98878	1390.55676	1484.62427	73.82597	1437.38879	1524.36597	51.11522	1391.57178	1331.31152	37.36573	1438.98608	1410.83179	1711.45581																																	 
4	0.030	1499.50684	1302.98096	1677.62915	1368.25195	1302.63391	1663.36902	1501.01978	1434.14526	1618.34668	1372.61816	1432.81274	1609.71655	1438.28711	1430.05994	1463.10242	1420.98022	1469.00427	1136.69653	1448.85950	1321.81323	1384.77368	1457.93579	1287.87219	1207.29077	1346.66833	1495.41089	1296.14697	1603.97595	1395.22766	1416.39148	1675.33765	1424.93689	1216.47729	1686.11230	1442.10181	1105.80322	1709.28210	1431.58899	956.04974	1667.38611	1382.23145	835.96680	1704.58679	1442.82690	836.34058	1706.48059	1406.86328	752.33350	1284.16931	1345.24768	1418.61328	1190.81604	1366.94751	1219.05933	1180.66541	1352.01746	1097.34351	1169.60632	1324.02112	979.79626	1215.92542	1259.41064	848.04889	1165.64368	1304.58228	843.41266	1173.86365	1259.96497	771.90546	1551.80237	1307.41394	975.28351	1333.18701	1285.97205	971.67163	1510.02722	1464.06262	1004.36670	1342.29919	1438.44287	1004.71350	1611.92908	1316.46265	669.15906	1587.18652	1266.88171	514.10699	1588.54529	1339.07495	272.95032	1556.81177	1366.97400	101.00657	1507.47192	1403.29199	87.65990	1572.55151	1230.13696	54.21429	1290.19421	1366.71106	636.82556	1317.56360	1380.75537	512.70868	1334.34375	1455.15686	255.85323	1390.75195	1484.30554	73.94344	1437.53796	1524.26111	51.32502	1391.52881	1331.28040	37.43965	1439.26221	1404.63135	1710.81885																																	 
5	0.040	1499.71008	1296.72668	1676.73450	1368.47021	1296.50708	1662.54541	1501.29236	1427.95557	1617.58020	1372.85352	1426.65320	1609.03735	1438.31482	1424.01245	1462.34204	1420.91809	1463.00537	1135.88257	1448.86230	1315.74268	1383.94312	1457.78967	1281.83325	1206.51648	1346.59729	1489.39978	1295.43005	1603.99182	1389.23193	1415.49109	1675.35498	1419.79578	1215.79089	1686.09302	1437.62488	1105.22705	1709.04163	1428.00183	955.29626	1667.34924	1379.36731	835.46271	1704.56689	1440.23950	835.89771	1705.99866	1404.71350	751.24194	1284.22144	1339.24719	1417.96887	1190.59375	1361.03271	1218.49438	1180.33679	1346.07019	1096.81628	1169.53674	1317.28687	979.48071	1216.35205	1251.50037	848.55573	1166.00439	1296.66284	843.26361	1174.77136	1251.34338	772.04840	1551.48853	1300.86292	974.75146	1332.13208	1277.52197	971.20190	1510.12317	1457.68542	1003.54517	1342.30847	1432.43933	1003.77045	1611.73596	1309.55359	668.50806	1586.55969	1259.02710	513.79462	1588.87036	1322.08643	269.98132	1556.87415	1342.55310	96.72916	1507.67908	1378.96619	82.28125	1570.28479	1203.90833	54.63916	1290.46252	1361.75928	636.10870	1317.71460	1376.83301	512.01410	1334.63953	1453.09912	255.72141	1390.94043	1483.96545	74.06546	1437.69604	1524.17273	51.60714	1391.60437	1331.14001	37.34521	1439.60168	1398.45898	1710.07788																																	 
